<svg width="120" height="120" viewBox="0 0 120 120" fill="none" xmlns="http://www.w3.org/2000/svg">
<rect width="120" height="120" rx="60" fill="url(#paint0_linear_4819_46351)"/>
<path d="M100.8 33.7344V51.126C100.8 53.1558 99.8605 55.0717 98.2546 56.3163L77.8164 72.1557L100.8 58.2862L92.4681 74.1271C91.739 75.5133 90.538 76.5939 89.0816 77.1744L67.1992 85.8956L74.0323 91.5065L60.0002 96.9744L45.9689 91.5065L52.8012 85.8956L30.9192 77.1743C29.4629 76.5939 28.262 75.5133 27.5329 74.1272L19.2002 58.2862L42.1841 72.1557L21.7458 56.3163C20.1399 55.0717 19.2002 53.1558 19.2002 51.1259V33.7344L48.0635 61.2766C52.1043 65.1324 55.6417 69.4818 58.5919 74.2219C59.5899 75.982 61.3203 79.1199 60.6683 81.2598C60.4474 81.9808 61.0462 81.7806 61.3842 81.6985C63.5522 81.1774 66.4168 76.0671 66.5728 74.2219C66.6651 73.1164 66.5153 71.6102 66.3331 70.215C66.0746 68.2348 66.7557 66.2793 68.2004 64.8982L100.8 33.7344Z" fill="white"/>
<path d="M62.8818 76.0033C64.2782 76.3707 64.8853 74.0032 63.4792 73.6333L62.8818 76.0033Z" fill="white"/>
<defs>
<linearGradient id="paint0_linear_4819_46351" x1="3.92423e-06" y1="128.94" x2="132.48" y2="5.52" gradientUnits="userSpaceOnUse">
<stop offset="0.536458" stop-color="#4381F3"/>
<stop offset="1" stop-color="#4381F3" stop-opacity="0.77"/>
</linearGradient>
</defs>
</svg>
